#!OML:ASF X:\für Bonn\!DataBase\2005_08_10_Bjorn_Final\c3d\bjorn.ASF
:FULLY-SPECIFIED
:DEGREES
226
root 0.418822 5.18703 21.3019 -417.092 -168.272 358.415
lowerback 38.6181 5.33149 15.0937
upperback 24.7614 1.86835 5.25827
thorax 10.1948 -1.91608 -3.13051
lowerneck 6.99053 -10.1915 13.6053
upperneck 17.306 -14.1689 -6.78748
head 2.74494 -7.11022 -4.15855
rclavicle -1.34975e-013 1.19271e-014
rhumerus -261.361 -126.231 152.423
rradius 16.1229
rwrist 0.63059
rhand -19.5818 5.34763
rfingers 7.12502
rthumb 6.7435 -24.525
lclavicle -1.34975e-013 1.19271e-014
lhumerus -408.956 49.1264 -310.632
lradius 11.2782
lwrist -38.5368
lhand -16.4522 -1.99868
lfingers 7.12502
lthumb 9.76386 27.755
rfemur -52.0626 -71.1542 -32.6217
rtibia 140.299
rfoot -12.6578 39.0439
rtoes -16.5927
lfemur -64.5316 19.488 3.49317
ltibia 137.789
lfoot -16.1134 -28.8233
ltoes -28.6317
227
root 0.4191 5.15532 21.3359 -417.494 -168.116 358.789
lowerback 38.709 5.54773 15.1101
upperback 24.7999 2.17911 5.3808
thorax 10.2436 -1.76457 -3.07187
lowerneck 7.13652 -10.1214 13.6013
upperneck 17.3357 -14.0069 -7.04181
head 2.7222 -7.03488 -4.23111
rclavicle 6.12257e-014 3.97569e-015
rhumerus -263.118 -125.924 154.571
rradius 15.5659
rwrist 1.81174
rhand -19.2642 5.12752
rfingers 7.12502
rthumb 7.05016 -24.7351
lclavicle 6.12257e-014 3.97569e-015
lhumerus -410.418 50.6116 -312.911
lradius 11.194
lwrist -40.7762
lhand -17.0754 -1.61638
lfingers 7.12502
lthumb 9.16262 28.1646
rfemur -58.8594 -67.8872 -24.4801
rtibia 138.887
rfoot -8.47908 37.2744
rtoes -16.8831
lfemur -64.7982 18.8768 3.34998
ltibia 137.744
lfoot -15.6357 -28.9172
ltoes -28.5657
228
root 0.420535 5.11922 21.368 -417.935 -167.993 359.23
lowerback 38.8624 5.70533 15.2293
upperback 24.8175 2.45684 5.4663
thorax 10.2607 -1.61613 -3.09381
lowerneck 7.34306 -10.0359 13.5718
upperneck 17.3086 -13.8266 -7.19373
head 2.68604 -6.94845 -4.26507
rclavicle 1.01778e-013 9.54166e-015
rhumerus -265.227 -125.604 157.047
rradius 15.0478
rwrist 3.18137
rhand -18.9726 4.9513
rfingers 7.12502
rthumb 7.33162 -24.9017
lclavicle 1.01778e-013 9.54166e-015
lhumerus -411.943 52.0262 -315.373
lradius 11.1515
lwrist -43.0234
lhand -17.746 -1.21597
lfingers 7.12502
lthumb 8.51551 28.5923
rfemur -63.1815 -64.5344 -18.8193
rtibia 137.447
rfoot -4.80932 35.409
rtoes -17.5756
lfemur -65.0791 18.3169 3.33121
ltibia 137.697
lfoot -14.9639 -29.1413
ltoes -28.1126
229
root 0.422462 5.08116 21.3982 -418.36 -167.863 359.672
lowerback 39.0225 5.85456 15.3005
upperback 24.8142 2.71807 5.55861
thorax 10.2401 -1.48348 -3.08016
lowerneck 7.56211 -9.92942 13.4954
upperneck 17.3104 -13.6195 -7.39097
head 2.65785 -6.85364 -4.30794
rclavicle -4.94974e-014 9.54166e-015
rhumerus -267.53 -125.363 159.819
rradius 14.5437
rwrist 4.84298
rhand -18.6572 4.68115
rfingers 7.12502
rthumb 7.636 -25.161
lclavicle -4.94974e-014 9.54166e-015
lhumerus -413.008 52.9538 -317.156
lradius 11.2301
lwrist -44.486
lhand -18.44 -0.774889
lfingers 7.12502
lthumb 7.84571 29.0595
rfemur -65.9988 -61.3307 -14.7772
rtibia 135.99
rfoot -1.49465 33.5425
rtoes -18.2386
lfemur -65.432 17.8252 3.29508
ltibia 137.682
lfoot -14.3384 -29.3401
ltoes -27.8525
230
root 0.424897 5.04174 21.4292 -418.808 -167.755 360.146
lowerback 39.1952 5.96847 15.4202
upperback 24.8397 2.92397 5.63089
thorax 10.2558 -1.37822 -3.10225
lowerneck 7.73747 -9.78409 13.2764
upperneck 17.2906 -13.3808 -7.48461
head 2.6493 -6.74536 -4.30307
rclavicle 8.94531e-016 -6.0033e-014
rhumerus -269.895 -125.116 162.648
rradius 14.1048
rwrist 6.6224
rhand -18.3935 4.35689
rfingers 7.12502
rthumb 7.89059 -25.4759
lclavicle 8.94531e-016 -6.0033e-014
lhumerus -413.288 53.4456 -318.038
lradius 11.4154
lwrist -44.8856
lhand -18.8945 -0.473025
lfingers 7.12502
lthumb 7.40702 29.3773
rfemur -67.7955 -58.2451 -11.7897
rtibia 134.537
rfoot 1.56419 31.7011
rtoes -18.6984
lfemur -65.7695 17.3347 3.31726
ltibia 137.652
lfoot -13.625 -29.577
ltoes -27.4566
231
root 0.427827 5.00109 21.4598 -419.24 -167.68 360.612
lowerback 39.3941 6.08884 15.4989
upperback 24.8355 3.13775 5.73102
thorax 10.2193 -1.27968 -3.07419
lowerneck 7.91867 -9.62217 12.9532
upperneck 17.3113 -13.1314 -7.5918
head 2.6573 -6.63891 -4.28917
rclavicle -4.54223e-014 -5.80451e-014
rhumerus -271.237 -125.061 164.206
rradius 13.8476
rwrist 7.67375
rhand -18.1235 3.86868
rfingers 7.12502
rthumb 8.15114 -25.9541
lclavicle -4.54223e-014 -5.80451e-014
lhumerus -412.822 53.3807 -317.952
lradius 11.6942
lwrist -44.3141
lhand -18.9915 -0.23739
lfingers 7.12502
lthumb 7.31333 29.6162
rfemur -68.9222 -55.4382 -9.53963
rtibia 133.117
rfoot 4.25784 29.977
rtoes -19.1201
lfemur -66.1292 16.9267 3.39171
ltibia 137.626
lfoot -12.8077 -29.9017
ltoes -26.8296
232
root 0.431763 4.96002 21.4909 -419.689 -167.63 361.093
lowerback 39.6125 6.18805 15.5987
upperback 24.8356 3.32379 5.81971
thorax 10.1842 -1.19599 -3.0635
lowerneck 7.99285 -9.42492 12.5944
upperneck 17.4422 -12.8615 -7.69283
head 2.71881 -6.52477 -4.2805
rclavicle -5.60573e-014 -2.26615e-014
rhumerus -271.886 -125.066 164.9
rradius 13.6383
rwrist 8.32601
rhand -17.8257 3.39936
rfingers 7.12502
rthumb 8.43856 -26.4121
lclavicle -5.60573e-014 -2.26615e-014
lhumerus -412.036 53.076 -317.518
lradius 12.0222
lwrist -43.3772
lhand -18.9392 -0.128366
lfingers 7.12502
lthumb 7.36388 29.7235
rfemur -69.5685 -52.9492 -7.82467
rtibia 131.743
rfoot 6.70305 28.3804
rtoes -19.4807
lfemur -66.4595 16.5598 3.50396
ltibia 137.58
lfoot -12.029 -30.1788
ltoes -26.3585
233
root 0.432382 4.91608 21.5186 -420.085 -167.582 361.513
lowerback 39.8074 6.29828 15.6337
upperback 24.8185 3.51317 5.90517
thorax 10.1236 -1.11505 -3.02548
lowerneck 8.089 -9.18731 12.1072
upperneck 17.5791 -12.5529 -7.72837
head 2.79406 -6.39756 -4.23367
rclavicle -5.6753e-014 -8.50798e-014
rhumerus -271.874 -125.157 164.803
rradius 13.485
rwrist 8.57324
rhand -17.5708 2.88844
rfingers 7.12502
rthumb 8.68456 -26.9129
lclavicle -5.6753e-014 -8.50798e-014
lhumerus -411.102 52.5733 -316.914
lradius 12.341
lwrist -42.6267
lhand -18.5274 0.00723517
lfingers 7.12502
lthumb 7.76127 29.8448
rfemur -70.037 -50.7858 -6.48259
rtibia 130.432
rfoot 8.91689 27.016
rtoes -19.7494
lfemur -66.8617 16.4057 3.59316
ltibia 137.589
lfoot -11.132 -30.5479
ltoes -25.6161
234
root 0.432594 4.87109 21.5447 -420.468 -167.561 361.902
lowerback 40.0281 6.40236 15.6826
upperback 24.7832 3.71168 5.95888
thorax 10.0379 -1.02349 -3.02985
lowerneck 8.26552 -8.95598 11.6031
upperneck 17.6539 -12.2466 -7.73273
head 2.84083 -6.27215 -4.1666
rclavicle 2.21645e-014 6.38099e-014
rhumerus -271.22 -125.332 163.827
rradius 13.367
rwrist 8.33185
rhand -17.3255 2.41832
rfingers 7.12502
rthumb 8.92121 -27.3731
lclavicle 2.21645e-014 6.38099e-014
lhumerus -409.574 51.5405 -315.696
lradius 12.574
lwrist -41.7499
lhand -17.9191 0.357886
lfingers 7.12502
lthumb 8.34837 30.1729
rfemur -70.3617 -48.8593 -5.35326
rtibia 129.161
rfoot 10.9505 25.7944
rtoes -19.9407
lfemur -67.2315 16.3814 3.72345
ltibia 137.598
lfoot -10.2936 -30.9546
ltoes -24.9245
235
root 0.431864 4.82453 21.5702 -420.847 -167.55 362.269
lowerback 40.2691 6.50409 15.6731
upperback 24.7411 3.88416 6.03884
thorax 9.92324 -0.961694 -2.9728
lowerneck 8.45687 -8.68212 10.991
upperneck 17.7172 -11.8845 -7.78442
head 2.88672 -6.12815 -4.09708
rclavicle 1.45958e-013 -2.14687e-014
rhumerus -270.042 -125.6 162.308
rradius 13.2911
rwrist 7.86965
rhand -17.0389 2.01329
rfingers 7.12502
rthumb 9.19777 -27.7661
lclavicle 1.45958e-013 -2.14687e-014
lhumerus -408.121 50.4389 -314.487
lradius 12.7771
lwrist -40.9391
lhand -17.0955 0.867064
lfingers 7.12502
lthumb 9.14318 30.6489
rfemur -70.522 -47.1765 -4.48302
rtibia 127.978
rfoot 12.8644 24.687
rtoes -19.8155
lfemur -67.6129 16.3822 3.83859
ltibia 137.614
lfoot -9.43037 -31.3178
ltoes -24.252
236
root 0.42822 4.77587 21.5946 -421.224 -167.549 362.604
lowerback 40.5406 6.5924 15.6727
upperback 24.6851 4.04965 6.11026
thorax 9.78396 -0.903076 -2.92776
lowerneck 8.71795 -8.42164 10.3878
upperneck 17.695 -11.521 -7.91704
head 2.88807 -5.98575 -4.04409
rclavicle 4.84786e-014 7.85199e-015
rhumerus -268.517 -125.954 160.37
rradius 13.2532
rwrist 7.17915
rhand -16.7297 1.53412
rfingers 7.12502
rthumb 9.49616 -28.2319
lclavicle 4.84786e-014 7.85199e-015
lhumerus -406.927 49.4752 -313.606
lradius 12.9353
lwrist -40.2102
lhand -16.3329 1.34625
lfingers 7.12502
lthumb 9.87903 31.0945
rfemur -70.5646 -45.8015 -3.85064
rtibia 126.914
rfoot 14.5819 23.8128
rtoes -19.6797
lfemur -67.9766 16.4322 3.94682
ltibia 137.655
lfoot -8.6313 -31.6981
ltoes -23.7661
